<svg width="128" height="128" viewBox="0 0 128 128" fill="none" xmlns="http://www.w3.org/2000/svg">
  <defs>
    <linearGradient id="drupalGradient" x1="32" y1="16" x2="104" y2="120" gradientUnits="userSpaceOnUse">
      <stop offset="0" stop-color="#2DAFEA" />
      <stop offset="1" stop-color="#0C6AB7" />
    </linearGradient>
  </defs>
  <path
    d="M63.84 14.02c3.37 8.16 9.1 14.64 16.28 20.68 2.32 1.97 4.76 3.8 7.26 5.56 12.4 8.64 22.36 19.36 22.36 36.88 0 22.76-19.8 41.76-45.6 41.76S18.64 100.9 18.64 77.14c0-12.2 5.48-21.92 13.04-29.92 6-6.36 13.32-11.48 19.88-17.88 4.4-4.24 8.16-9.04 10.28-15.32Zm-6.28 39.72c-9.2 0-17.36 7.8-17.36 18.6 0 11.04 8.92 19.92 20.12 19.92 9.12 0 16.72-6.24 18.96-14.88-2.92 3.12-6.64 5.08-10.88 5.08-8.64 0-15.64-7.56-15.64-16.88 0-3.96 1.24-7.6 3.36-10.64-0.84-0.12-1.68-0.2-2.56-0.2Z"
    fill="url(#drupalGradient)"
  />
  <path
    d="M63.24 28.58c-1.56 2.4-3.52 4.6-5.8 6.72-5.92 5.48-13.32 10.12-19.4 15.8-6.88 6.32-11.76 14.52-11.76 25.84 0 19.4 16.48 34.6 38.48 34.6 21.88 0 37.96-14.68 37.96-33.84 0-13.24-7.32-20.4-17.12-27.32-7.56-5.36-15.88-11.32-22.36-21.8Z"
    fill="#0E4672"
    fill-opacity="0.35"
  />
</svg>
