<svg width="120" height="120" viewBox="0 0 120 120" fill="none" xmlns="http://www.w3.org/2000/svg">
  <rect width="120" height="120" rx="28" fill="#0D1B2A"/>
  <g transform="translate(20 20)">
    <path d="M40 0C18 0 0 18 0 40C0 62 18 80 40 80C50.4 80 60 76 67.6 69.6C62 72.4 55.6 74 48.8 74C30.4 74 16 59.6 16 41.2C16 22.8 30.4 8.4 48.8 8.4C55.6 8.4 62 10 67.6 12.8C60 6.4 50.4 0 40 0Z" fill="#FED766"/>
    <path d="M71.6 16.8C75.6 22.8 78 29.8 78 37.6C78 45.4 75.6 52.4 71.6 58.4C65.6 67.2 55.4 73 44 73C32.6 73 22.4 67.2 16.4 58.4C12.4 52.4 10 45.4 10 37.6C10 29.8 12.4 22.8 16.4 16.8C22.4 8 32.6 2.2 44 2.2C55.4 2.2 65.6 8 71.6 16.8Z" fill="#00BFB3"/>
    <path d="M77.6 37.6C77.6 55.2 63.6 69.2 46 69.2C28.4 69.2 14.4 55.2 14.4 37.6C14.4 20 28.4 6 46 6C63.6 6 77.6 20 77.6 37.6Z" fill="#2EC4B6"/>
    <path d="M65.6 24C59.2 18 49.2 20 43.6 27.2L39.4 32.6C34 39.6 24 40 18 33.8C16.4 35.6 14.8 37.6 13.6 39.8C14.6 49.8 20.8 59 30 64.2C39.2 69.4 50 69 58.8 63C69.6 55.8 72.8 40.8 65.6 24Z" fill="#FF7F11"/>
  </g>
</svg>
