<svg width="120" height="120" viewBox="0 0 120 120" fill="none" xmlns="http://www.w3.org/2000/svg">
  <circle cx="60" cy="60" r="52" fill="url(#paint0_radial)" />
  <path
    d="M60.2 28c-12.9 0-24.8 8.4-29.1 21.1a24.47 24.47 0 00-1.1 7.4c0 5.2 1.6 10 4.5 14.2 1.4 1.9 1.5 4.5 0.1 6.4-3.3 4.6-5.2 10-5.2 15.8 0 2 1.7 3.6 3.7 3.6 4.7 0 9-1.3 12.8-3.8 2.1-1.4 4.9-1.1 6.7 0.7 4.2 4.1 10 6.5 16.2 6.5 12.7 0 23.6-8.9 26.6-21.2 0.5-2.1 2.4-3.5 4.5-3.2 2 .3 4 .5 6.1.5 2 0 3.6-1.6 3.6-3.6 0-14.8-10.2-27.2-23.8-30.1-2.2-.5-3.7-2.6-3.4-4.8.1-.8.2-1.6.2-2.5C76.6 35.4 69.3 28 60.2 28zm0 17.4c8.3 0 15 6.7 15 15s-6.7 15-15 15-15-6.7-15-15 6.7-15 15-15z"
    fill="url(#paint1_linear)"
  />
  <defs>
    <radialGradient id="paint0_radial" cx="0" cy="0" r="1" gradientUnits="userSpaceOnUse" gradientTransform="matrix(0 52 -52 0 60 8)">
      <stop stop-color="#FFE8B5" />
      <stop offset="0.5" stop-color="#FF9D3C" />
      <stop offset="1" stop-color="#FF5B2B" />
    </radialGradient>
    <linearGradient id="paint1_linear" x1="34" y1="35" x2="92" y2="92" gradientUnits="userSpaceOnUse">
      <stop stop-color="#FFEDC5" />
      <stop offset="0.45" stop-color="#FFB347" />
      <stop offset="1" stop-color="#FF5B2B" />
    </linearGradient>
  </defs>
</svg>
