<svg width="64" height="64" viewBox="0 0 64 64" xmlns="http://www.w3.org/2000/svg" role="img" aria-labelledby="title">
  <title>Joomla Logo</title>
  <g fill="none" fill-rule="evenodd">
    <path d="M26 8a6 6 0 0 1 6-6h12a6 6 0 0 1 6 6v12a6 6 0 0 1-6 6h-6v6h6a6 6 0 0 1 6 6v12a6 6 0 0 1-6 6H32a6 6 0 0 1-6-6v-6h-6v6a6 6 0 0 1-6 6H8a6 6 0 0 1-6-6V38a6 6 0 0 1 6-6h6v-6H8a6 6 0 0 1-6-6V8a6 6 0 0 1 6-6h12a6 6 0 0 1 6 6v6h6V8z" fill="#ffffff" opacity="0"/>
    <path d="M28.5 10.5a6.5 6.5 0 0 1 6.5-6.5h8.5a6.5 6.5 0 0 1 6.5 6.5v8.5a6.5 6.5 0 0 1-6.5 6.5h-4.5l6.3 6.3a6.5 6.5 0 0 1 0 9.2l-6 6a6.5 6.5 0 0 1-9.2 0l-6.3-6.3v4.5a6.5 6.5 0 0 1-6.5 6.5H11.5A6.5 6.5 0 0 1 5 44.5V36a6.5 6.5 0 0 1 6.5-6.5h4.5l-6.3-6.3a6.5 6.5 0 0 1 0-9.2l6-6a6.5 6.5 0 0 1 9.2 0l6.3 6.3v-4.5z" fill="#ffffff" opacity="0"/>
    <circle cx="20" cy="16" r="8" fill="#f7941d"/>
    <path d="M24.24 21.76a8 8 0 0 1 0 11.31l-5.66 5.66a8 8 0 0 1-11.31-11.31l5.66-5.66a8 8 0 0 1 11.31 0z" fill="#f15a29"/>
    <circle cx="44" cy="16" r="8" fill="#009ddc"/>
    <path d="M39.76 21.76a8 8 0 0 1 11.31 0l5.66 5.66a8 8 0 0 1-11.31 11.31l-5.66-5.66a8 8 0 0 1 0-11.31z" fill="#95c11f"/>
    <circle cx="20" cy="48" r="8" fill="#009ddc"/>
    <circle cx="44" cy="48" r="8" fill="#f7941d"/>
  </g>
</svg>
