<svg width="64" height="64" viewBox="0 0 64 64" fill="none" xmlns="http://www.w3.org/2000/svg">
  <defs>
    <linearGradient id="matterGradient" x1="8" y1="6" x2="56" y2="58" gradientUnits="userSpaceOnUse">
      <stop stop-color="#0F6FFF"/>
      <stop offset="1" stop-color="#1CB5E0"/>
    </linearGradient>
  </defs>
  <circle cx="32" cy="32" r="28" fill="url(#matterGradient)"/>
  <path d="M32 15.5c-9.1 0-16.5 7.4-16.5 16.5s7.4 16.5 16.5 16.5 16.5-7.4 16.5-16.5-7.4-16.5-16.5-16.5Zm0 5.5c6.1 0 11 4.9 11 11s-4.9 11-11 11-11-4.9-11-11 4.9-11 11-11Z" fill="#fff"/>
  <path d="M44.7 11.8c-1.6-.7-3.3.5-3.3 2.2v9.9c0 .9.5 1.6 1.3 2.1 3.5 2 5.8 5.8 5.8 10 0 6.4-5.1 11.5-11.5 11.5-1.7 0-3 .7-3 2.4 0 1.2.9 2.3 2.1 2.5 11.4 1.9 21.3-6.8 21.3-18.2 0-7.4-4.4-13.8-10.8-16.8-1-.5-1.7-1.4-1.9-2.5l-.6-2.9c-.2-1.1-1-2-2.2-2.2Z" fill="#fff" opacity="0.9"/>
</svg>
