<svg width="640" height="360" viewBox="0 0 640 360" fill="none" xmlns="http://www.w3.org/2000/svg">
  <path d="M515.6 79.4C569 108.9 607 154.5 624 212.7c-34.2 53.9-97.2 87.6-155.2 95-37.8 4.9-74.7-4.1-105.4-25 61.2-15.4 112.2-49.3 168.4-83.5-25.9-73.8-71.6-121.3-137-144.7 37.6-20.9 86.5-18.7 120.8 24.9Z" fill="#1F1A33"/>
  <path d="M92.8 242.5c-17.4-65.7 19-124.3 86.3-150 57.4-21.2 127-3.7 179.5 37.3l.8.6c33.3 25.9 58.6 59.5 74.4 96.6-62.1 34.3-123.1 66.4-204.8 76.3-54.2 6.5-112.4-18.3-136.2-60.8Zm120.9-110.8c-32.2 11.1-50 40.3-44.4 70.6 36.7 9.7 87.3 2.5 141.8-18.5-24-30.9-61-49.5-97.4-52.1Z" fill="#7B59E8"/>
  <path d="M300.6 86.1c-61.4-36-136.9-38.5-196.4-11.4C63.5 109.2 32 161.1 32 217c0 29.1 8.9 55.1 24.6 76.8C11.7 268.5-4.5 225.8 4.8 176 16.8 112 76 57.4 149.4 46.2c41.3-6.2 83.5 1.1 113.7 17.2 25.9 13.3 48.6 31.6 67.5 53.3-21.6-3.6-45-4.9-70-10.6Z" fill="#663ECF"/>
  <path d="M161.2 323.7c66.2 21.7 141.2 9 214.4-30.1 38.7-20.6 76.6-45.3 110.5-73.9 11 34.1 6.9 70.1-10.7 98.8-26.4 35.7-70.7 56.3-126.8 56.3-73.1 0-130.2-20.5-187.4-51.1Z" fill="#1F1A33"/>
</svg>
