<svg width="96" height="96" viewBox="0 0 96 96" fill="none" xmlns="http://www.w3.org/2000/svg">
  <g clip-path="url(#clip0)">
    <path d="M34.5 25.2C28.6 27.5 23.9 31.8 21.2 37.2C18.8 35.1 15.7 34 12.5 34C5.6 34 0 39.5 0 46.3C0 53.1 5.6 58.6 12.5 58.6H14.2C16.3 69.9 26 78.2 37.7 78.2H63.7C78.8 78.2 91 66.2 91 51.3C91 36.4 78.8 24.4 63.7 24.4C62.1 24.4 60.5 24.6 59 24.9C54 18.4 46.6 14.4 38.5 14.4C36.8 14.4 35.2 14.6 33.7 14.8C34.5 16.9 35 19.1 35 21.5C35 22.8 34.8 24 34.5 25.2Z" fill="#1A1B4B"/>
    <path d="M27.2 44.1C27.2 41.7 27.7 39.4 28.6 37.4C30.4 33.3 34.2 30.5 38.6 30.5C39.8 30.5 41 30.7 42.2 31.1L20.7 68.6C17.7 64.6 16 59.6 16 54.1C16 47.5 20.3 41.8 26.2 39.6C27 41 27.2 42.5 27.2 44.1Z" fill="url(#paint0_linear)"/>
    <path d="M50.5 28.1L31.8 60.5C32.8 68.6 39.4 74.8 47.5 74.8C52.8 74.8 57.5 72.2 60.5 68.1L69.8 52.9C71.2 50.5 72 47.6 72 44.6C72 36.5 65.4 30 57.2 30C54.6 30 52.1 30.7 50 32.1C50.3 30.8 50.5 29.4 50.5 28.1Z" fill="url(#paint1_linear)"/>
    <path d="M67.4 30.4C74.6 30.4 80.4 36.2 80.4 43.4C80.4 45.9 79.7 48.3 78.5 50.5L68.1 67.5C66.6 70 64.4 72.1 61.8 73.5L74.6 51.9C76.2 49.1 77.2 45.8 77.2 42.2C77.2 38.1 75.6 34.4 73.1 31.6C71.3 31 69.4 30.6 67.4 30.4Z" fill="#E5E9FF"/>
    <path d="M38.3 22.1C38.3 19.1 37.6 16.3 36.4 13.8C30.9 15.3 26.2 18.6 22.9 23.1C25.7 19.8 30 17.6 34.8 17.6C36.1 17.6 37.2 17.8 38.3 18.1V22.1Z" fill="#E5E9FF"/>
  </g>
  <defs>
    <linearGradient id="paint0_linear" x1="20.1" y1="30.5" x2="45.2" y2="74.8" gradientUnits="userSpaceOnUse">
      <stop stop-color="#6F5CFF"/>
      <stop offset="1" stop-color="#A379FF"/>
    </linearGradient>
    <linearGradient id="paint1_linear" x1="40.8" y1="28" x2="64.7" y2="74.7" gradientUnits="userSpaceOnUse">
      <stop stop-color="#9F65FF"/>
      <stop offset="1" stop-color="#5E33FF"/>
    </linearGradient>
    <clipPath id="clip0">
      <rect width="91" height="64" fill="white" transform="translate(0 14.4)"/>
    </clipPath>
  </defs>
</svg>
