<svg width="140" height="120" viewBox="0 0 140 120" fill="none" xmlns="http://www.w3.org/2000/svg">
  <path d="M30 88V40H42L58 60L74 40H86V88H74V58L60 74H56L42 58V88H30Z" fill="#FF8A00"/>
  <path d="M92 40H104V88H92V40Z" fill="#FF8A00"/>
  <path d="M110 64C110 49.6 118.6 40 131.2 40C133.5 40 135.7 40.4 137.8 41.2L134.8 50.8C133.7 50.3 132.5 50 131.2 50C125.6 50 121.6 54.5 121.6 64C121.6 73.5 125.7 78 131.4 78C132.6 78 133.8 77.8 135 77.3L137.9 86.8C135.7 87.6 133.3 88 130.8 88C118.4 88 110 78.4 110 64Z" fill="#FF8A00"/>
  <path d="M78 30H118V38H78V30Z" fill="#3E3A35"/>
  <path d="M92 24C96 20 101 18 106.5 18C112 18 117 20 121 24L118 28C115 25 111 24 106.5 24C102 24 98 25 95 28L92 24Z" fill="#3E3A35"/>
</svg>
