<svg width="160" height="80" viewBox="-12 0 184 90" fill="none" xmlns="http://www.w3.org/2000/svg">
  <path d="M80 14C93.3 14 105 22.4 110 34.8C115 22.4 126.7 14 140 14C152.7 14 163.7 21.9 168 33.6L156.2 38C153.4 30.4 146.5 25 138.2 25C126.8 25 117.6 33.9 117.6 44.8C117.6 55.7 126.8 64.6 138.2 64.6C146.4 64.6 153.2 59.5 156.1 51.9L168 56.1C163.8 68.7 152.6 77 140 77C126.7 77 115 68.6 110 56.2C105 68.6 93.3 77 80 77C66.7 77 55 68.6 50 56.2C45 68.6 33.3 77 20 77C7.4 77 -3.8 68.7 -8 56.1L3.9 51.9C6.8 59.5 13.6 64.6 21.8 64.6C33.2 64.6 42.4 55.7 42.4 44.8C42.4 33.9 33.2 25 21.8 25C13.5 25 6.6 30.4 3.8 38L-8 33.6C-3.7 21.9 7.3 14 20 14C33.3 14 45 22.4 50 34.8C55 22.4 66.7 14 80 14Z" fill="#1C88E5"/>
  <circle cx="80" cy="45" r="16" fill="white"/>
  <circle cx="80" cy="45" r="8" fill="#1C88E5"/>
</svg>
