<svg width="96" height="96" viewBox="0 0 96 96" fill="none" xmlns="http://www.w3.org/2000/svg">
  <defs>
    <linearGradient id="postizGradient" x1="12" y1="12" x2="84" y2="84" gradientUnits="userSpaceOnUse">
      <stop stop-color="#7B4DFF" />
      <stop offset="0.5" stop-color="#B448FF" />
      <stop offset="1" stop-color="#FF4DB8" />
    </linearGradient>
  </defs>
  <rect x="8" y="8" width="80" height="80" rx="24" fill="url(#postizGradient)" />
  <path
    d="M32 30h22c9.941 0 18 8.059 18 18s-8.059 18-18 18h-6.8l-9.6 9.6c-1.12 1.12-3.04.328-3.04-1.26V66c-7.732 0-14-6.268-14-14s6.268-14 14-14Z"
    fill="white"
    opacity="0.92"
  />
  <path
    d="M36 42c0-2.209 1.791-4 4-4h14c4.418 0 8 3.582 8 8s-3.582 8-8 8h-8.4l-3.6 3.6c-0.84 0.84-2.4 0.246-2.4-0.945V54c-1.105 0-2-0.895-2-2v-10Z"
    fill="#41196B"
    opacity="0.9"
  />
</svg>
