<svg width="96" height="96" viewBox="0 0 96 96" fill="none" xmlns="http://www.w3.org/2000/svg">
  <circle cx="48" cy="48" r="44" fill="#21759B" />
  <circle cx="48" cy="48" r="42" fill="#1A5E7F" />
  <path
    fill="#FFFFFF"
    d="M28.8 32h7.04l5.68 23.28L46.72 32h7.04l5.84 23.32L65.44 32h7.04l-11.52 32h-6.48l-5.68-21.36L43.12 64h-6.48L25.12 32h3.68z"
  />
  <path
    fill="#53B4E6"
    opacity="0.35"
    d="M48 10c20.954 0 38 17.046 38 38S68.954 86 48 86 10 68.954 10 48 27.046 10 48 10zm0-6C23.49 4 4 23.49 4 48s19.49 44 44 44 44-19.49 44-44S72.51 4 48 4z"
  />
</svg>
